<svg version="1.2" xmlns="http://www.w3.org/2000/svg" viewBox="0 0 57 57" width="57" height="57">
	<title>quote (1)-svg</title>
	<defs>
		<clipPath clipPathUnits="userSpaceOnUse" id="cp1">
			<path d="m34.55 56.72l-34.2-22.34 22.22-34.38 34.2 22.34z"/>
		</clipPath>
	</defs>
	<style>
		.s0 { fill: #222f43 } 
	</style>
	<filter id="f0">
		<feFlood flood-color="#ffffff" flood-opacity="1" />
		<feBlend mode="normal" in2="SourceGraphic"/>
		<feComposite in2="SourceAlpha" operator="in" />
	</filter>
	<g id="Clip-Path" clip-path="url(#cp1)" filter="url(#f0)">
		<g id="Layer">
			<path id="Layer" class="s0" d="m33 33.1l4.6 3q0.8 0.6 1 1.5 0.2 1-0.3 1.8l-0.5 0.7q-1.4 2.1-3.9 2.7-2.6 0.5-4.7-0.9l-1.4-0.8q-0.5-0.4-1.1-0.3-0.7 0.2-1 0.7l-1.7 2.7q-0.4 0.5-0.3 1.1 0.2 0.7 0.7 1l1.3 0.9q2.2 1.4 4.7 1.8 2.4 0.5 4.8 0 2.3-0.5 4.4-1.9 2.1-1.5 3.5-3.6l9.4-14.5q1.1-1.7 0.7-3.6-0.4-1.9-2.1-3l-7.9-5.1q-1.6-1.1-3.5-0.7-1.9 0.4-3 2l-5.1 8q-1.1 1.6-0.7 3.5 0.4 1.9 2.1 3z"/>
			<path id="Layer" class="s0" d="m12.5 18.1q0.4 1.9 2.1 3l4.6 3q0.8 0.5 1 1.5 0.2 0.9-0.4 1.8l-0.4 0.6q-1.4 2.2-3.9 2.8-2.6 0.5-4.8-0.9l-1.3-0.9q-0.5-0.3-1.2-0.2-0.6 0.1-0.9 0.7l-1.8 2.6q-0.3 0.6-0.2 1.2 0.2 0.7 0.7 1l1.3 0.9q2.2 1.4 4.6 1.8 2.5 0.4 4.9-0.1 2.3-0.5 4.4-1.9 2.1-1.4 3.5-3.5l9.4-14.6q1.1-1.6 0.6-3.5-0.4-1.9-2-3l-7.9-5.2q-1.6-1.1-3.5-0.6-1.9 0.4-3 2l-5.1 7.9q-1.1 1.7-0.7 3.6z"/>
		</g>
	</g>
</svg>