<svg version="1.2" xmlns="http://www.w3.org/2000/svg" viewBox="0 0 24 24" width="24" height="24">
	<title>home-svg</title>
	<defs>
		<clipPath clipPathUnits="userSpaceOnUse" id="cp1">
			<path d="m0 0h24v24h-24z"/>
		</clipPath>
	</defs>
	<style>
		.s0 { fill: #e6f0ff } 
		.s1 { fill: #de210e } 
	</style>
	<g id="Clip-Path" clip-path="url(#cp1)">
		<g id="Layer">
			<path id="Layer" class="s0" d="m12.5 20c-4.1 0-7.5-3.4-7.5-7.5 0-4.1 3.4-7.5 7.5-7.5 4.1 0 7.5 3.4 7.5 7.5 0 4.1-3.4 7.5-7.5 7.5z"/>
			<path id="Layer" class="s1" d="m8.3 10.8l-0.1 5.6q0.1 0 0.1 0.1 0 0 0.1 0h7.2q0.1 0 0.1 0 0-0.1 0-0.1v-5.6l-3.7-3.7z"/>
			<path id="Layer" fill-rule="evenodd" class="s1" d="m20 4c2.1 2.2 3.2 5 3.3 8 0 2.2-0.7 4.4-1.9 6.3-1.3 1.8-3 3.2-5.1 4.1-2.1 0.8-4.3 1.1-6.5 0.6-2.2-0.4-4.2-1.5-5.8-3-1.5-1.6-2.6-3.6-3-5.8-0.5-2.2-0.2-4.4 0.6-6.5 0.9-2.1 2.3-3.8 4.1-5.1 1.9-1.2 4.1-1.9 6.3-1.9 3 0.1 5.8 1.2 8 3.3zm-1.6 7.6q0-0.3-0.2-0.5l-1.2-1.1-4.5-4.5q-0.2-0.2-0.5-0.2-0.3 0-0.5 0.2l-4.5 4.5-1.2 1.1q-0.2 0.2-0.2 0.5 0 0.3 0.2 0.6 0.2 0.1 0.5 0.2 0.2 0 0.5-0.1v4.1c0 0.4 0.1 0.8 0.4 1.1 0.3 0.3 0.7 0.5 1.2 0.5h7.2c0.5 0 0.9-0.2 1.2-0.5 0.3-0.3 0.5-0.7 0.5-1.1v-4.1q0.2 0.1 0.4 0.1 0.3-0.1 0.5-0.2 0.2-0.3 0.2-0.6z"/>
		</g>
	</g>
</svg>